<svg width="100" height="100" viewBox="0 0 100 100" fill="none" xmlns="http://www.w3.org/2000/svg">
<circle cx="50" cy="50" r="50" fill="#436850"/>
<g clip-path="url(#clip0_189_134)">
<path d="M46.4585 61.0072V68.1461C46.4492 68.4143 46.3361 68.6686 46.143 68.8551C45.9498 69.0415 45.6918 69.1458 45.4233 69.1454H37.9276C36.6952 68.9379 35.5795 68.2911 34.7866 67.3251" stroke="#FBFADA" stroke-width="3" stroke-linecap="round" stroke-linejoin="round"/>
<path d="M34.7865 67.3604C34.7865 67.3604 30.8958 63.9693 39.9264 54.939H43.9598L37.9275 44.9803H26.8267L29.8607 48.871C29.8607 48.871 27.8261 49.2279 27.8261 52.0477C28.8933 57.6336 31.2797 62.8836 34.7865 67.3604Z" stroke="#FBFADA" stroke-width="3" stroke-linecap="round" stroke-linejoin="round"/>
<path d="M61.985 47.7646L67.2679 44.1952C67.3858 44.1431 67.5136 44.1162 67.6425 44.1162C67.7718 44.1162 67.8993 44.1431 68.0175 44.1952C68.1554 44.2114 68.2879 44.2582 68.405 44.3324C68.5225 44.4065 68.6218 44.506 68.6958 44.6236L72.8004 50.7629C73.0458 51.2565 73.1733 51.8002 73.1733 52.3513C73.1733 52.9025 73.0458 53.4461 72.8004 53.9397" stroke="#FBFADA" stroke-width="3" stroke-linecap="round" stroke-linejoin="round"/>
<path d="M72.9433 53.5828C72.9433 53.5828 71.8011 58.223 59.9864 57.1522V54.0468L53.0618 63.1129L59.6295 73.2143L59.9864 68.4672C59.9864 68.4672 61.3072 70.0732 63.5558 68.4672C67.3272 63.9411 70.4836 58.9362 72.9433 53.5828Z" stroke="#FBFADA" stroke-width="3" stroke-linecap="round" stroke-linejoin="round"/>
<path d="M40.569 40.3042L35.7504 38.0912C35.5127 37.9684 35.3296 37.7611 35.2371 37.51C35.1446 37.259 35.1494 36.9824 35.2507 36.7348L39.3198 28.5966C39.5916 28.1148 39.9717 27.7027 40.4301 27.393C40.8885 27.0833 41.4126 26.8843 41.9611 26.8119" stroke="#FBFADA" stroke-width="3" stroke-linecap="round" stroke-linejoin="round"/>
<path d="M41.9608 26.8123C41.9608 26.8123 46.3512 26.8123 51.9194 37.5204L49.0282 41.0898H61.0215L65.269 29.8819L60.2718 31.4168C60.1992 30.6423 59.9187 29.9018 59.4601 29.2736C59.0014 28.6453 58.3816 28.1526 57.6661 27.8474C55.2059 27.0329 52.6159 26.682 50.0276 26.8123H41.9608Z" stroke="#FBFADA" stroke-width="3" stroke-linecap="round" stroke-linejoin="round"/>
</g>
<defs>
<clipPath id="clip0_189_134">
<rect width="50" height="50" fill="white" transform="translate(25 25)"/>
</clipPath>
</defs>
</svg>
